<svg xmlns="http://www.w3.org/2000/svg" viewBox="0 0 48 48" id="api" fill="#03a8bb"><path d="M26.2 16H25v3.1h1.3c.8 0 1.5-.7 1.5-1.5 0-.9-.7-1.6-1.6-1.6zm0 0H25v3.1h1.3c.8 0 1.5-.7 1.5-1.5 0-.9-.7-1.6-1.6-1.6zM5.5 8.5v23h37v-23h-37zM21 26.1h-2v-3.7h-2.8v3.7h-2v-8.7c0-1.9 1.5-3.4 3.4-3.4s3.4 1.5 3.4 3.4v8.7zm5.2-5H25v5h-2V14h3.3c1.9 0 3.5 1.6 3.5 3.6 0 1.9-1.6 3.5-3.6 3.5zm7.6 5h-2v-12h2v12zM26.2 16H25v3.1h1.3c.8 0 1.5-.7 1.5-1.5 0-.9-.7-1.6-1.6-1.6zm-8.6 0c-.8 0-1.4.6-1.4 1.4v3H19v-3c0-.8-.7-1.4-1.4-1.4zM45.7 39.5H2.3L0 33.6h48z"></path></svg>
