<svg width="1440" height="160" viewBox="0 0 1440 160" fill="none" xmlns="http://www.w3.org/2000/svg">
<path d="M0 75.6627C6.4501 81.5225 16.3464 85.6087 27.3628 88.7765C68.6009 100.635 115.373 104.089 161.31 104.34C208.086 104.596 260.867 103.038 303.857 91.6587C331.443 84.3569 367.325 68.3635 345.032 49.7234C337.037 43.039 309.939 31.2206 293.173 34.5921C269.647 39.3229 277.742 63.5413 286.137 71.6277C304.468 89.2869 373.758 111.995 406.272 91.0822C434.402 72.9896 382.822 20.4463 349.983 43.2386C326.205 59.7417 341.115 88.4561 381.515 91.1543C401.828 92.5109 419.169 88.0143 421.908 75.6627C425.014 61.6574 407.127 48.6192 391.679 39.3477C379.642 32.1237 353.475 17.182 329.656 22.7753C302.299 29.1997 292.564 52.6797 292 65.7914C291.066 87.4729 300.615 89.6859 334.999 90.8661C349.036 91.3479 363.09 88.4373 377.085 89.2088C430.065 92.1296 414.617 98.5063 465.428 109.24C529.593 122.794 624.943 116.38 639.768 70.9072C643.709 58.8172 633.499 39.9082 622.047 29.4043C617.848 25.5526 606.333 17.8971 599.375 25.9457C585.037 42.5311 591.726 70.5581 607.193 86.1826C611.078 90.1071 619.243 92.9842 619.702 85.462C620.671 69.5838 601.756 52.8194 574.618 47.0574C516.383 34.6923 474.787 72.2447 479.109 100.161C480.719 110.556 490.177 125.584 515.984 123.218C540.59 120.963 545.926 105.307 546.344 94.829C546.703 85.8172 541.235 69.3843 524.844 63.3416C506.717 56.6586 500.137 71.4392 499.436 76.6715C491.169 138.387 651.269 168.358 738.795 154.778C798.604 145.498 823.329 108.538 788.83 80.5624C762.286 59.038 713.2 61.5781 685.112 80.5624C659.686 97.7469 661.761 123.47 685.372 140.799C712.222 160.505 763.907 154.025 788.569 136.548C828.762 108.066 784.431 77.1842 745.049 57.5773C729.025 49.599 696.325 33.7185 668.955 35.3847C645.763 36.7967 636.378 52.4378 630.386 61.5402C622.315 73.8026 615.049 85.8555 627.389 98.4317C641.486 112.798 671.744 120.233 698.012 124.587C737.244 131.09 767.501 132.349 806.681 124.947C841.747 118.324 882.147 100.698 863.361 77.2479C855.796 67.8046 828.371 55.0516 813.326 49.4352C804.491 46.1371 788.8 39.2176 782.836 44.1032C779.944 46.4725 781.663 49.9313 783.097 52.6776C786.424 59.0499 790.493 65.4472 796.908 71.0513C813.908 85.901 842.371 104.79 876.391 108.663C932.004 114.995 978.926 70.6282 918.868 55.7759C898.007 50.617 863.709 51.4873 843.295 56.9288C822.861 62.3755 797.771 79.6977 812.414 93.0277C819.59 99.56 832.965 99.0412 843.555 95.9819C859.614 91.3431 867.008 83.9847 866.749 73.7893C866.13 49.4964 817.389 26.7553 773.585 32.8628C736.509 38.0323 709.136 64.703 706.611 84.5974C705.998 89.4274 708.136 92.5666 717.426 88.9206C732.792 82.8904 743.635 72.5563 749.219 62.9813C758.639 46.8277 759.153 35.7887 745.701 20.3976C739.155 12.9078 723.644 1.40644 704.787 2.02387C687.119 2.60237 675.294 15.3973 668.825 21.6945C659.236 31.0281 645.996 42.4308 657.489 53.9025C673.309 69.694 715.571 77.5161 742.704 81.1388C794.161 88.0092 831.986 88.3746 882.385 79.3375C908.077 74.7304 937.501 66.2503 949.488 51.5968C959.332 39.5639 934.622 32.9036 917.826 37.7625C884.263 47.4718 871.881 76.635 887.596 94.6849C905.974 115.792 965.687 126.698 997.829 107.655C1032.36 87.1949 995.711 51.8037 948.055 53.182C894.132 54.7415 866.96 100.556 898.281 121.921C922.375 138.357 985.435 151.914 1017.9 135.107C1042.51 122.364 1041.96 93.2622 1025.32 78.2567C1009.6 64.0751 995.402 82.4735 992.617 90.0735C979.292 126.442 1074.13 123.932 1107.54 105.637C1148.08 83.4384 1100.86 44.1181 1052.29 42.9504C1015.31 42.0611 981.278 69.7313 1000.7 88.056C1023.71 109.772 1079.79 97.7036 1100.24 82.0035C1111.01 73.7383 1125.16 44.8263 1097.9 39.6359C1072.92 34.8797 1064.67 58.8566 1064.41 66.9442C1063.41 97.7065 1110.4 108.581 1158.23 96.198C1179.01 90.8182 1200.02 82.1789 1197.97 67.5927C1196.12 54.4175 1174.01 46.2871 1156.4 40.4285C1144.78 36.5589 1124.07 30.5091 1108.45 33.2952C1089.73 36.6342 1084.43 55.7896 1082.26 64.2783C1077.71 82.1448 1087.33 96.1426 1113.53 107.078C1142.4 119.127 1178.69 127.88 1215.43 124.227C1260.45 119.75 1297.22 104.822 1336.87 93.5321C1381.44 80.8405 1390.74 78.1887 1440 77.5625" stroke="#FFE5E5" stroke-width="3" stroke-linecap="round"/>
</svg>
